<?xml version="1.0" standalone="no"?>
<!DOCTYPE svg PUBLIC "-//W3C//DTD SVG 20010904//EN"
 "http://www.w3.org/TR/2001/REC-SVG-20010904/DTD/svg10.dtd">
<svg version="1.0" xmlns="http://www.w3.org/2000/svg"
 width="240.000000pt" height="240.000000pt" viewBox="0 0 240.000000 240.000000"
 preserveAspectRatio="xMidYMid meet">
<metadata>
Created by potrace 1.11, written by Peter Selinger 2001-2013
</metadata>
<g transform="translate(0.000000,240.000000) scale(0.100000,-0.100000)"
fill="#000000" stroke="none">
<path d="M1095 2390 c-594 -53 -1057 -531 -1091 -1126 -15 -254 52 -507 191
-721 65 -100 239 -279 327 -336 218 -142 431 -207 677 -207 451 0 857 247
1064 647 94 182 132 343 131 558 0 250 -60 448 -200 657 -241 362 -666 566
-1099 528z m296 -105 c496 -92 868 -496 908 -988 26 -322 -78 -626 -295 -857
-158 -168 -361 -281 -599 -332 -77 -16 -332 -16 -410 0 -223 48 -399 139 -557
290 -348 333 -442 834 -238 1269 150 321 454 555 803 618 101 18 288 18 388 0z"/>
<path d="M1235 2107 c0 -61 -5 -80 -30 -125 -16 -30 -43 -65 -60 -79 -16 -14
-50 -55 -75 -91 -66 -96 -105 -100 -224 -23 -69 45 -114 67 -121 59 -3 -3 1
-20 9 -39 8 -19 39 -122 71 -229 31 -107 68 -223 83 -258 30 -74 32 -114 7
-142 -34 -38 -47 -25 -112 104 -67 131 -97 176 -117 176 -7 0 -25 -9 -39 -20
-36 -29 -52 -25 -123 25 -70 50 -88 54 -104 25 -15 -29 -65 -26 -131 8 -38 19
-55 34 -57 50 -2 12 -8 20 -13 17 -17 -11 -9 -66 21 -152 17 -46 30 -99 30
-116 0 -24 8 -39 34 -59 40 -32 96 -114 96 -140 0 -36 -30 -77 -75 -104 -25
-14 -45 -29 -45 -32 0 -15 241 -116 329 -138 84 -21 122 -41 121 -63 -1 -10
-115 -90 -144 -101 -15 -5 -42 -21 -59 -34 -18 -13 -56 -36 -85 -50 -29 -15
-50 -31 -47 -36 4 -6 86 -10 198 -10 106 0 236 -5 289 -12 112 -14 193 -3 285
37 l56 25 -7 -71 c-3 -40 -11 -91 -17 -115 -14 -54 -6 -85 16 -63 18 18 35
104 35 180 l0 59 57 -32 c56 -32 61 -33 223 -39 160 -7 336 -23 373 -35 32
-10 18 18 -30 60 -99 86 -183 170 -183 182 0 8 10 16 23 19 131 30 354 75 388
78 24 2 46 8 48 13 3 5 -11 19 -30 31 -59 38 -69 51 -69 92 0 35 7 46 60 99
50 49 60 64 60 93 0 27 12 49 56 102 30 37 60 67 65 67 5 0 9 11 9 24 l0 24
-62 -26 c-82 -32 -173 -40 -228 -18 -40 16 -42 15 -92 -10 -51 -26 -96 -29
-155 -9 -26 9 -86 -43 -176 -153 l-60 -74 -21 21 c-16 16 -21 32 -19 64 2 58
35 146 73 198 17 24 39 62 50 86 10 23 48 81 85 129 36 48 62 91 58 95 -5 5
-42 2 -83 -7 -125 -26 -183 7 -196 110 -6 46 -12 56 -65 106 -46 44 -63 69
-83 124 -14 37 -26 87 -26 110 0 58 -10 86 -29 86 -13 0 -16 -12 -16 -73z"/>
</g>
</svg>
